<svg xmlns="http://www.w3.org/2000/svg" viewBox="0 0 63 68">
  <path fill="#996605" d="M26.496 12.655c-1.25-1.251-3.426-1.251-4.677 0L10.162 24.312c-1.276 1.214-1.287 3.473 0 4.677L36.49 55.317c1.223 1.281 3.468 1.28 4.691 0L52.838 43.66c1.276-1.215 1.287-3.473 0-4.677L26.496 12.655Zm24.821 29.498L39.66 53.81a1.184 1.184 0 0 1-1.663 0L11.669 27.496c-.46-.436-.444-1.22 0-1.649l2.218-2.218c.654.526 1.606.512 2.217-.085l4.933-4.933c.612-.611.626-1.563.086-2.217l2.217-2.218a1.167 1.167 0 0 1 1.65 0l26.327 26.328a1.184 1.184 0 0 1 0 1.663v-.014ZM3.217 37.636l1.062-.071L1.896 34 0 37.837l1.063-.072c1.493 12.111 9.951 22.16 21.726 25.683l.617-2.062c-10.913-3.264-18.768-12.54-20.19-23.764v.014Zm28.46 21.689c-.387 3.65-.703 3.95-4.379 4.309 3.676.4 3.978.716 4.322 4.366.388-3.65.704-3.951 4.38-4.31-3.676-.4-3.978-.715-4.322-4.365ZM61.951 30.225C60.515 18.5 52.413 8.554 41.151 4.78l-.69 2.038c10.429 3.488 17.942 12.687 19.321 23.537l-1.063.072L61.104 34 63 30.154l-1.063.071h.014ZM31.324 8.697c.388-3.66.704-3.96 4.381-4.32-3.677-.402-3.979-.717-4.323-4.377-.388 3.66-.704 3.961-4.382 4.32 3.678.402 3.98.717 4.324 4.377Z"/>
</svg>